<svg width="601" height="106" viewBox="0 0 601 106" fill="none" xmlns="http://www.w3.org/2000/svg">
<path d="M598.393 29.9132L572.263 65.2895L600.963 103.969H585.4L564.553 75.7509L543.849 103.969H529L557.271 65.8401L530.713 29.9132H546.277L564.981 55.3786L583.829 29.9132H598.393Z" fill="white"/>
<path d="M475.884 67.5C475.884 87.3 486.19 95 498.5 95C510.81 95 521.116 86.475 521.116 67.5C521.116 47.7 510.81 40 498.5 40C486.19 40 475.884 47.2875 475.884 67.5ZM462 67.5C462 40.6875 480.035 29 498.5 29C516.965 29 535 40.6875 535 67.5C535 94.3125 516.965 106 498.5 106C480.035 106 462 94.3125 462 67.5Z" fill="white"/>
<path d="M400.504 67.3542C400.504 86.9531 411.427 95.2344 423.069 95.2344C437.01 95.2344 444.771 85.4349 444.771 67.3542C444.771 49.2734 437.01 39.474 423.069 39.474C411.427 39.474 400.504 47.7552 400.504 67.3542ZM388 0H401.079V41.6823C405.822 33.8151 413.87 28.7083 426.374 28.7083C444.628 28.7083 459 43.0625 459 67.3542C459 92.0599 444.628 106 426.374 106C413.87 106 405.822 100.893 401.079 93.0261V104.206H388V0Z" fill="white"/>
<path d="M366.921 41.6823V0H380V104.206H366.921V93.026C362.178 100.893 354.13 106 341.625 106C323.372 106 309 92.0599 309 67.3542C309 43.0625 323.372 28.7083 341.625 28.7083C354.13 28.7083 362.178 33.8151 366.921 41.6823ZM367.496 67.3542C367.496 47.7552 356.573 39.474 344.931 39.474C330.99 39.474 323.229 49.2734 323.229 67.3542C323.229 85.4349 330.99 95.2344 344.931 95.2344C356.573 95.2344 367.496 86.9531 367.496 67.3542Z" fill="white"/>
<path d="M253.765 30V41.34C258.113 34.3474 265.407 29 278.172 29C296.407 29 303 40.5174 303 57.3821V104H290.235V61.0841C290.235 49.7038 288.271 39.8318 273.683 39.8318C261.339 39.8318 253.765 47.9214 253.765 63.9634V104H241L240.67 30H253.765Z" fill="white"/>
<path d="M221.15 104V93.5862C216.773 100.621 209.854 106 197.287 106C179.778 106 173 94.4138 173 77.4483V30H185.85V73.7241C185.85 85.1724 187.685 95.1034 201.806 95.1034C214.09 95.1034 221.15 86.9655 221.15 70.8276V30H234V104H221.15Z" fill="white"/>
<path d="M137.453 29.8914V22.453C137.453 8.81589 142.192 0 157.244 0C160.171 0 164.352 0.137757 167 0.688743V11.0199C163.794 10.6066 161.146 10.4689 159.056 10.4689C151.948 10.4689 150.136 13.7748 150.136 22.453V29.8914H167V39.947H150.136V104H137.453V39.947H127V29.8914H137.453Z" fill="white"/>
<rect y="29.7148" width="29.7143" height="74.2857" fill="white"/>
<rect width="29.7143" height="74.2857" transform="matrix(-4.37114e-08 1 1 4.37114e-08 29.7148 0)" fill="white"/>
<rect x="51.3242" y="51.3242" width="29.7143" height="29.7143" fill="white"/>
</svg>
